<?xml version="1.0" encoding="UTF-8" standalone="no"?>
<svg
   xmlns:dc="http://purl.org/dc/elements/1.1/"
   xmlns:cc="http://creativecommons.org/ns#"
   xmlns:rdf="http://www.w3.org/1999/02/22-rdf-syntax-ns#"
   xmlns:svg="http://www.w3.org/2000/svg"
   xmlns="http://www.w3.org/2000/svg"
   viewBox="0 0 595.27557 419.52759"
   id="svg17"
   height="419.52759"
   width="595.27557"
   version="1.1">
  <metadata
     id="metadata23">
    <rdf:RDF>
      <cc:Work
         rdf:about="">
        <dc:format>image/svg+xml</dc:format>
        <dc:type
           rdf:resource="http://purl.org/dc/dcmitype/StillImage" />
      </cc:Work>
    </rdf:RDF>
  </metadata>
  <defs
     id="defs21" />
  <g
     id="Layer1000">
    <path
       id="path2"
       style="fill:#00539d;fill-rule:evenodd"
       d="m 126.6066,182.714 h -35.915 v 19.3329 h 33.0719 c 2.437,0 4.2499,0.5464 5.4351,1.6283 1.2111,1.0929 1.8092,2.5403 1.8092,4.3237 0,1.7833 -0.587,3.2566 -1.7723,4.3753 -1.1852,1.1336 -3.0092,1.6948 -5.472,1.6948 H 90.6916 v 22.3901 h 37.1519 c 2.4997,0 4.3902,0.5723 5.6529,1.7465 1.2739,1.1594 1.9127,2.7101 1.9127,4.6375 0,1.8499 -0.6388,3.3711 -1.9127,4.5305 -1.2627,1.1741 -3.1532,1.7464 -5.6529,1.7464 H 84.518 c -3.4781,0 -5.9778,-0.768 -7.488,-2.3187 -1.5249,-1.536 -2.2818,-4.0246 -2.2818,-7.4511 v -59.1618 c 0,-2.2781 0.3397,-4.1538 1.0191,-5.6123 0.6757,-1.4326 1.7427,-2.5034 3.1901,-3.168 1.4474,-0.6498 3.3083,-0.9895 5.5606,-0.9895 h 42.0886 c 2.5366,0 4.4418,0.5612 5.664,1.6948 1.2258,1.1187 1.8498,2.603 1.8498,4.427 0,1.8646 -0.624,3.349 -1.8498,4.4825 -1.2222,1.1335 -3.1274,1.6911 -5.664,1.6911 z" />
    <path
       id="path4"
       style="fill:#00539d;fill-rule:evenodd"
       d="m 196.8674,232.3164 c 0,1.8203 -0.5464,3.7772 -1.6393,5.8449 -1.0966,2.0861 -2.7508,4.0541 -4.992,5.9409 -2.2376,1.8757 -5.0511,3.3858 -8.4665,4.5342 -3.3858,1.1446 -7.2295,1.7169 -11.4757,1.7169 -9.0498,0 -16.1242,-2.6437 -21.2049,-7.9163 -5.0806,-5.2911 -7.6209,-12.3508 -7.6209,-21.2455 0,-6.0074 1.1594,-11.3206 3.4782,-15.9323 2.3335,-4.6117 5.6935,-8.1933 10.0947,-10.7188 4.416,-2.5144 9.6665,-3.7772 15.7883,-3.7772 3.792,0 7.2702,0.5612 10.4456,1.6652 3.1532,1.1077 5.8486,2.5403 8.0492,4.3015 2.2043,1.7428 3.8843,3.6185 5.0437,5.6123 1.1704,1.9791 1.7427,3.829 1.7427,5.5496 0,1.7464 -0.6498,3.2418 -1.9643,4.4529 -1.3034,1.2258 -2.88,1.824 -4.7409,1.824 -1.2111,0 -2.2301,-0.2991 -3.0351,-0.9378 -0.7975,-0.6388 -1.7058,-1.6394 -2.7101,-3.0351 -1.7834,-2.7212 -3.6591,-4.752 -5.616,-6.1219 -1.9385,-1.355 -4.4123,-2.0307 -7.4215,-2.0307 -4.3385,0 -7.8314,1.68 -10.4751,5.0658 -2.6548,3.3859 -3.9729,8.0123 -3.9729,13.8868 0,2.747 0.3397,5.2873 1.0154,7.595 0.6793,2.304 1.6689,4.2831 2.9575,5.9003 1.2923,1.6394 2.8394,2.8653 4.6634,3.6997 1.8387,0.8456 3.8437,1.2628 6.0184,1.2628 2.9317,0 5.4462,-0.6646 7.5434,-2.0345 2.0825,-1.3661 3.9471,-3.4375 5.5606,-6.2363 0.8972,-1.643 1.8609,-2.9317 2.8911,-3.8584 1.0412,-0.9379 2.3077,-1.4068 3.8178,-1.4068 1.7834,0 3.2677,0.6905 4.4529,2.0455 1.1853,1.3699 1.7723,2.8283 1.7723,4.3533 z" />
    <path
       id="path6"
       style="fill:#00539d;fill-rule:evenodd"
       d="m 247.0495,220.6708 c 0,-5.9778 -1.3144,-10.6301 -3.947,-13.9642 -2.6326,-3.3194 -6.1625,-4.9883 -10.6043,-4.9883 -2.8653,0 -5.3908,0.7421 -7.5656,2.2264 -2.1895,1.488 -3.8584,3.6739 -5.0547,6.5797 -1.1742,2.8911 -1.7576,6.2769 -1.7576,10.1464 0,3.8179 0.5834,7.1779 1.7317,10.0283 1.1705,2.869 2.8394,5.0696 5.0031,6.5797 2.1489,1.5249 4.7151,2.2929 7.6431,2.2929 4.4418,0 7.9717,-1.68 10.6043,-5.0289 2.6326,-3.3489 3.947,-7.9717 3.947,-13.872 z m 14.7065,0 c 0,4.3643 -0.6794,8.389 -2.0345,12.0739 -1.355,3.6886 -3.3341,6.8529 -5.9113,9.5114 -2.581,2.6436 -5.653,4.6633 -9.2345,6.0812 -3.5852,1.4215 -7.5951,2.123 -12.0775,2.123 -4.4419,0 -8.4259,-0.7163 -11.9705,-2.1489 -3.5409,-1.4215 -6.6166,-3.4781 -9.2086,-6.1366 -2.592,-2.6695 -4.56,-5.8227 -5.9003,-9.456 -1.3403,-3.6332 -2.0197,-7.6467 -2.0197,-12.048 0,-4.427 0.6794,-8.507 2.0456,-12.1919 1.3698,-3.685 3.3083,-6.8271 5.8486,-9.445 2.5551,-2.603 5.616,-4.6338 9.2344,-6.0295 3.6222,-1.4178 7.6099,-2.1378 11.9705,-2.1378 4.4418,0 8.4664,0.72 12.0775,2.1526 3.6185,1.4326 6.72,3.4744 9.2861,6.1218 2.592,2.6548 4.5453,5.7932 5.8856,9.4412 1.344,3.648 2.0086,7.6726 2.0086,12.0886 z" />
    <path
       id="path8"
       style="fill:#e20a1c;fill-rule:evenodd"
       d="m 338.6187,224.2671 c 0,2.4997 -0.613,5.2099 -1.8499,8.1268 -1.2369,2.9206 -3.179,5.7858 -5.8227,8.5994 -2.6548,2.7987 -6.0296,5.0917 -10.1465,6.8381 -4.1169,1.7465 -8.9095,2.6289 -14.3815,2.6289 -4.1649,0 -7.9422,-0.3876 -11.3317,-1.1852 -3.4117,-0.7791 -6.4984,-2.016 -9.2603,-3.6701 -2.7729,-1.669 -5.328,-3.8437 -7.6467,-6.5797 -2.0825,-2.4739 -3.8548,-5.2246 -5.3133,-8.2855 -1.4732,-3.072 -2.5809,-6.3434 -3.3083,-9.7957 -0.7421,-3.4893 -1.0929,-7.1631 -1.0929,-11.0696 0,-6.3323 0.9231,-11.9962 2.7582,-17.0104 1.8387,-5.0031 4.4824,-9.3009 7.9199,-12.8566 3.4413,-3.5705 7.4659,-6.2658 12.0776,-8.1304 4.6227,-1.861 9.5446,-2.8136 14.7692,-2.8136 6.3581,0 12.0369,1.2923 17.0104,3.8289 4.9773,2.5403 8.7803,5.6825 11.424,9.4191 2.6696,3.7403 3.9877,7.2701 3.9877,10.6043 0,1.824 -0.6535,3.4375 -1.9274,4.8295 -1.2923,1.3957 -2.8541,2.0862 -4.6892,2.0862 -2.0345,0 -3.5705,-0.4689 -4.5748,-1.4474 -1.0154,-0.9637 -2.16,-2.6289 -3.4117,-4.9883 -2.0824,-3.9065 -4.5193,-6.8123 -7.3329,-8.7508 -2.8135,-1.931 -6.2658,-2.8947 -10.3827,-2.8947 -6.5502,0 -11.76,2.4775 -15.6554,7.451 -3.8806,4.9883 -5.8228,12.048 -5.8228,21.2197 0,6.1108 0.8603,11.2025 2.5773,15.2677 1.7206,4.0615 4.1575,7.0966 7.296,9.1015 3.1532,2.0086 6.8381,3.0092 11.0732,3.0092 4.5711,0 8.4517,-1.1446 11.616,-3.4116 3.168,-2.2782 5.5495,-5.6123 7.1667,-10.0025 0.6757,-2.0862 1.5213,-3.7772 2.5256,-5.0806 1.0043,-1.3145 2.6067,-1.9532 4.8332,-1.9532 1.8868,0 3.5151,0.6498 4.8849,1.979 1.3551,1.3145 2.0308,2.9686 2.0308,4.9366 z" />
    <path
       id="path10"
       style="fill:#e20a1c;fill-rule:evenodd"
       d="m 385.2635,220.9921 c -2.1489,0.7791 -5.2615,1.6283 -9.3673,2.4997 -4.1022,0.875 -6.9416,1.5249 -8.5034,1.9273 -1.5766,0.4173 -3.0868,1.2259 -4.5083,2.4111 -1.4326,1.1963 -2.1637,2.88 -2.1637,5.0289 0,2.2117 0.8492,4.1022 2.5403,5.664 1.6689,1.5508 3.8695,2.3336 6.5908,2.3336 2.8947,0 5.5753,-0.6536 8.0233,-1.9163 2.4628,-1.2628 4.261,-2.8911 5.4093,-4.9108 1.3144,-2.2154 1.979,-5.8597 1.979,-10.9403 z m 0.9748,21.2049 c -3.5557,2.7618 -6.9821,4.8184 -10.2904,6.1883 -3.3083,1.392 -7.0191,2.0824 -11.136,2.0824 -3.7625,0 -7.0597,-0.7421 -9.8991,-2.2264 -2.8541,-1.4991 -5.04,-3.504 -6.5908,-6.0443 -1.536,-2.5403 -2.304,-5.3022 -2.304,-8.2708 0,-3.9988 1.2628,-7.4252 3.8142,-10.2498 2.5403,-2.8136 6.0332,-4.7299 10.4751,-5.6936 0.923,-0.2104 3.227,-0.6904 6.9156,-1.4473 3.685,-0.7533 6.8493,-1.4437 9.4819,-2.0714 2.6326,-0.6092 5.4831,-1.3809 8.5587,-2.2782 -0.1846,-3.8695 -0.9526,-6.6941 -2.3335,-8.507 -1.3809,-1.8093 -4.2314,-2.7065 -8.5551,-2.7065 -3.7403,0 -6.528,0.5059 -8.4036,1.5471 -1.8868,1.0449 -3.504,2.592 -4.8333,4.6634 -1.355,2.0861 -2.304,3.467 -2.8504,4.1169 -0.5465,0.6646 -1.7465,0.9895 -3.5705,0.9895 -1.6394,0 -3.072,-0.5317 -4.272,-1.5766 -1.2,-1.0671 -1.7981,-2.4074 -1.7981,-4.0505 0,-2.5772 0.9267,-5.0916 2.736,-7.5286 1.835,-2.4332 4.6744,-4.427 8.544,-6.0036 3.8547,-1.5767 8.6769,-2.3594 14.4479,-2.3594 6.432,0 11.5016,0.7717 15.1865,2.2818 3.6849,1.5102 6.2917,3.9212 7.8166,7.2148 1.5101,3.2972 2.2781,7.6578 2.2781,13.104 0,3.4375 -0.0258,6.3581 -0.0258,8.7544 -0.0148,2.3963 -0.0517,5.0659 -0.0923,7.9975 0,2.7471 0.4689,5.6123 1.3698,8.6105 0.9231,2.9945 1.381,4.9218 1.381,5.7674 0,1.499 -0.7164,2.8689 -2.1231,4.1058 -1.4216,1.2369 -3.0092,1.8609 -4.8074,1.8609 -1.4991,0 -2.9982,-0.7163 -4.4566,-2.123 -1.4695,-1.4179 -3.0203,-3.4634 -4.6634,-6.1477 z" />
    <path
       id="path12"
       style="fill:#e20a1c;fill-rule:evenodd"
       d="m 458.9656,231.301 c 0,4.0357 -0.9895,7.5027 -2.9538,10.3791 -1.968,2.8799 -4.8739,5.0695 -8.7286,6.5538 -3.8548,1.4843 -8.533,2.2264 -14.0419,2.2264 -5.2504,0 -9.7698,-0.8086 -13.5212,-2.411 -3.7514,-1.6136 -6.5391,-3.6185 -8.3224,-6.0406 -1.7834,-2.4259 -2.6843,-4.8333 -2.6843,-7.2813 0,-1.6024 0.5723,-2.9833 1.7206,-4.1316 1.1446,-1.1447 2.592,-1.717 4.3384,-1.717 1.5471,0 2.7323,0.3766 3.5557,1.1188 0.8197,0.768 1.6136,1.8092 2.3705,3.1791 1.4843,2.6178 3.2935,4.5563 5.3797,5.8486 2.0972,1.2886 4.9477,1.9274 8.5698,1.9274 2.9428,0 5.3391,-0.6536 7.2148,-1.9533 1.8904,-1.3033 2.8135,-2.7877 2.8135,-4.4824 0,-2.5772 -0.9748,-4.4529 -2.9169,-5.6382 -1.9533,-1.1741 -5.1692,-2.3077 -9.6369,-3.3747 -5.0437,-1.2517 -9.1459,-2.5662 -12.3249,-3.9619 -3.1643,-1.3661 -5.6899,-3.1754 -7.5914,-5.4314 -1.9016,-2.267 -2.8394,-5.0399 -2.8394,-8.3224 0,-2.9428 0.8566,-5.7194 2.6289,-8.3225 1.7465,-2.6178 4.3385,-4.7039 7.7502,-6.2658 3.4264,-1.5508 7.5433,-2.3335 12.3766,-2.3335 3.803,0 7.2,0.3914 10.235,1.1889 3.0093,0.7938 5.5385,1.8461 7.5582,3.1643 2.016,1.3292 3.5667,2.7988 4.608,4.4012 1.0707,1.6173 1.5914,3.1902 1.5914,4.7299 0,1.68 -0.5613,3.0609 -1.68,4.128 -1.1336,1.0818 -2.736,1.6135 -4.8074,1.6135 -1.5102,0 -2.7877,-0.4283 -3.8437,-1.2886 -1.056,-0.8603 -2.2671,-2.1489 -3.6222,-3.8696 -1.1187,-1.4326 -2.4073,-2.5772 -3.9175,-3.4375 -1.4991,-0.8603 -3.5446,-1.2886 -6.1218,-1.2886 -2.6474,0 -4.848,0.5723 -6.6056,1.6948 -1.7575,1.1298 -2.6326,2.5255 -2.6326,4.2203 0,1.536 0.6388,2.7987 1.9274,3.7772 1.2923,0.9895 3.0351,1.8092 5.2135,2.448 2.1859,0.6498 5.1951,1.4326 9.024,2.3705 4.5489,1.1076 8.2449,2.4221 11.1397,3.9729 2.8763,1.536 5.0658,3.3452 6.5502,5.4424 1.4732,2.0862 2.2264,4.4825 2.2264,7.1668 z" />
    <path
       id="path14"
       style="fill:#e20a1c;fill-rule:evenodd"
       d="m 482.9508,177.9915 v 21.7403 c 1.8499,-2.1489 3.6739,-3.8548 5.4462,-5.1065 1.7686,-1.2517 3.7366,-2.1895 5.8744,-2.8135 2.16,-0.624 4.4677,-0.9378 6.9268,-0.9378 3.7255,0 7.0227,0.7827 9.9138,2.3556 2.88,1.5767 5.1323,3.8696 6.7865,6.8788 1.0412,1.7465 1.7317,3.7108 2.0824,5.8745 0.3656,2.1637 0.5502,4.6633 0.5502,7.4916 v 28.08 c 0,2.9317 -0.6794,5.1471 -2.0197,6.6462 -1.344,1.5101 -3.1274,2.2523 -5.3428,2.2523 -4.8295,0 -7.2553,-2.9576 -7.2553,-8.8985 v -24.7606 c 0,-4.6744 -0.6868,-8.2855 -2.0825,-10.811 -1.392,-2.5145 -4.0505,-3.7773 -7.9458,-3.7773 -2.6179,0 -4.9773,0.7422 -7.0597,2.2265 -2.0825,1.4732 -3.6591,3.504 -4.6893,6.0849 -0.7938,2.1859 -1.1852,6.0702 -1.1852,11.6566 v 19.3809 c 0,2.8948 -0.6646,5.1065 -1.968,6.6314 -1.2997,1.5249 -3.1126,2.2671 -5.4424,2.2671 -4.8222,0 -7.2443,-2.9576 -7.2443,-8.8985 v -63.563 c 0,-2.9686 0.6277,-5.2098 1.9015,-6.6831 1.2665,-1.4843 3.0498,-2.2264 5.3428,-2.2264 2.3298,0 4.1427,0.7421 5.4424,2.2523 1.3034,1.4991 1.968,3.7144 1.968,6.6572 z" />
  </g>
</svg>
